:FULLY-SPECIFIED
:FORCE-ALL-JOINTS-BE-3DOF
:DEGREES
469
root 10.8783 17.368 29.5644 4.34498 3.97867 2.947
lfemur -8.44223 2.96551 -28.6428
ltibia 23.3223 0 0
lfoot -17.9464 3.25404 0
ltoes 1.63413 0 0
rfemur -33.665 0.729634 16.0041
rtibia 52.5678 0 0
rfoot -20.6477 -10.0173 0
rtoes -15.3804 0 0
lowerback -5.08986 -4.03012 -3.79125
upperback -0.21615 -5.19677 1.7672
thorax 3.11137 -2.65602 3.53608
lowerneck -22.6548 -2.60045 -9.37213
upperneck 25.0999 -3.06444 9.38446
head 12.3541 -1.02309 4.65536
lclavicle 1.20216e-14 1.54966e-14 0
lhumerus -13.4603 -19.2653 85.7164
lradius 27.0266 0 0
lwrist 3.20585 0 0
lhand -14.3472 -24.5914 0
lfingers 7.12502 0 0
lthumb 11.7945 5.05809 0
rclavicle 1.20216e-14 1.54966e-14 0
rhumerus -46.1997 10.5531 -86.82
rradius 38.585 0 0
rwrist -18.9096 0 0
rhand -38.3829 -15.3327 0
rfingers 7.12502 0 0
rthumb -11.4087 -45.0069 0
470
root 10.8807 17.364 29.7214 4.30793 4.09563 3.05926
lfemur -7.42192 2.91677 -28.7109
ltibia 22.6422 0 0
lfoot -18.1079 3.20208 0
ltoes 1.49577 0 0
rfemur -34.378 0.993019 15.7641
rtibia 51.9923 0 0
rfoot -21.3536 -10.2326 0
rtoes -15.6122 0 0
lowerback -5.14867 -4.16118 -3.88029
upperback -0.122076 -5.36132 1.76282
thorax 3.25917 -2.74307 3.56164
lowerneck -22.7663 -2.55427 -9.28739
upperneck 25.1123 -3.00798 9.35696
head 12.3687 -0.989992 4.64024
lclavicle 1.23829e-14 1.52975e-14 0
lhumerus -12.9684 -19.6877 85.6797
lradius 27.346 0 0
lwrist 3.44457 0 0
lhand -14.3958 -24.6436 0
lfingers 7.12502 0 0
lthumb 11.7476 5.00914 0
rclavicle 1.23829e-14 1.52975e-14 0
rhumerus -46.2726 10.4621 -86.7147
rradius 38.6233 0 0
rwrist -18.9706 0 0
rhand -38.3646 -15.274 0
rfingers 7.12502 0 0
rthumb -11.3911 -44.95 0
471
root 10.8827 17.3594 29.884 4.27368 4.21197 3.17511
lfemur -6.36272 2.86566 -28.7782
ltibia 21.9228 0 0
lfoot -18.2627 3.15211 0
ltoes 1.3516 0 0
rfemur -35.0975 1.27563 15.5114
rtibia 51.3697 0 0
rfoot -22.0549 -10.4511 0
rtoes -15.864 0 0
lowerback -5.21263 -4.29234 -3.97283
upperback -0.0264516 -5.52538 1.75684
thorax 3.41186 -2.83009 3.58684
lowerneck -22.8779 -2.50899 -9.20432
upperneck 25.1218 -2.9533 9.33355
head 12.3825 -0.957324 4.62661
lclavicle 1.27824e-14 1.50675e-14 0
lhumerus -12.4839 -20.1179 85.6444
lradius 27.6782 0 0
lwrist 3.68833 0 0
lhand -14.4423 -24.6978 0
lfingers 7.12502 0 0
lthumb 11.7028 4.95804 0
rclavicle 1.27824e-14 1.50675e-14 0
rhumerus -46.3487 10.3621 -86.6065
rradius 38.65 0 0
rwrist -19.0272 0 0
rhand -38.3272 -15.2286 0
rfingers 7.12502 0 0
rthumb -11.3551 -44.9069 0
472
root 10.8841 17.3542 30.0515 4.24251 4.327 3.29395
lfemur -5.2699 2.81244 -28.8441
ltibia 21.1673 0 0
lfoot -18.4097 3.10449 0
ltoes 1.20232 0 0
rfemur -35.8193 1.57629 15.2473
rtibia 50.7024 0 0
rfoot -22.7472 -10.6716 0
rtoes -16.1349 0 0
lowerback -5.2815 -4.42282 -4.06842
upperback 0.0701971 -5.68796 1.74927
thorax 3.56868 -2.91656 3.61151
lowerneck -22.9891 -2.4649 -9.12346
upperneck 25.1282 -2.90078 9.31448
head 12.3955 -0.925289 4.61461
lclavicle 1.32189e-14 1.48071e-14 0
lhumerus -12.01 -20.5534 85.6106
lradius 28.0216 0 0
lwrist 3.9358 0 0
lhand -14.4865 -24.7537 0
lfingers 7.12502 0 0
lthumb 11.6602 4.90504 0
rclavicle 1.32189e-14 1.48071e-14 0
rhumerus -46.4276 10.2536 -86.496
rradius 38.6647 0 0
rwrist -19.0791 0 0
rhand -38.2707 -15.197 0
rfingers 7.12502 0 0
rthumb -11.3005 -44.8782 0
473
root 10.8851 17.3483 30.2231 4.2147 4.44 3.4152
lfemur -4.14871 2.75735 -28.9083
ltibia 20.379 0 0
lfoot -18.548 3.05957 0
ltoes 1.04864 0 0
rfemur -36.5394 1.89384 14.9729
rtibia 49.993 0 0
rfoot -23.4262 -10.8929 0
rtoes -16.4239 0 0
lowerback -5.35502 -4.55185 -4.1666
upperback 0.167342 -5.84808 1.74009
thorax 3.72885 -3.00195 3.6355
lowerneck -23.0991 -2.4223 -9.04536
upperneck 25.1313 -2.85079 9.3
head 12.4077 -0.894093 4.60434
lclavicle 1.36911e-14 1.45169e-14 0
lhumerus -11.5495 -20.9919 85.5788
lradius 28.3746 0 0
lwrist 4.18569 0 0
lhand -14.5279 -24.8111 0
lfingers 7.12502 0 0
lthumb 11.6202 4.85041 0
rclavicle 1.36911e-14 1.45169e-14 0
rhumerus -46.5089 10.1368 -86.3837
rradius 38.6669 0 0
rwrist -19.1258 0 0
rhand -38.1945 -15.1798 0
rfingers 7.12502 0 0
rthumb -11.227 -44.8646 0
474
root 10.8855 17.3418 30.3979 4.19053 4.55026 3.53825
lfemur -3.00442 2.70062 -28.9703
ltibia 19.561 0 0
lfoot -18.6763 3.0177 0
ltoes 0.891266 0 0
rfemur -37.2536 2.2271 14.6893
rtibia 49.2438 0 0
rfoot -24.0877 -11.1138 0
rtoes -16.7301 0 0
lowerback -5.43295 -4.67863 -4.26692
upperback 0.264455 -6.00474 1.7293
thorax 3.89158 -3.08576 3.65864
lowerneck -23.2073 -2.38149 -8.97054
upperneck 25.1311 -2.80371 9.29035
head 12.4188 -0.863941 4.59594
lclavicle 1.41976e-14 1.41973e-14 0
lhumerus -11.1058 -21.431 85.549
lradius 28.7355 0 0
lwrist 4.43665 0 0
lhand -14.5664 -24.8697 0
lfingers 7.12502 0 0
lthumb 11.5832 4.79437 0
rclavicle 1.41976e-14 1.41973e-14 0
rhumerus -46.5922 10.0122 -86.2701
rradius 38.6561 0 0
rwrist -19.1668 0 0
rhand -38.0985 -15.1778 0
rfingers 7.12502 0 0
rthumb -11.1344 -44.8667 0
475
root 10.8854 17.3346 30.5751 4.17028 4.65708 3.66251
lfemur -1.8423 2.64251 -29.0297
ltibia 18.7167 0 0
lfoot -18.7936 2.97922 0
ltoes 0.73089 0 0
rfemur -37.9579 2.57493 14.3978
rtibia 48.4573 0 0
rfoot -24.7273 -11.333 0
rtoes -17.0524 0 0
lowerback -5.51506 -4.80241 -4.3689
upperback 0.36101 -6.15695 1.7169
thorax 4.0561 -3.16745 3.68077
lowerneck -23.3131 -2.34275 -8.89956
upperneck 25.1274 -2.75991 9.28579
head 12.4288 -0.835039 4.58952
lclavicle 1.4737e-14 1.3849e-14 0
lhumerus -10.6817 -21.8684 85.5216
lradius 29.1028 0 0
lwrist 4.6874 0 0
lhand -14.6015 -24.9293 0
lfingers 7.12502 0 0
lthumb 11.5494 4.73717 0
rclavicle 1.4737e-14 1.3849e-14 0
rhumerus -46.6773 9.88009 -86.1558
rradius 38.632 0 0
rwrist -19.2016 0 0
rhand -37.9824 -15.1914 0
rfingers 7.12502 0 0
rthumb -11.0223 -44.8851 0
476
root 10.8847 17.3269 30.7539 4.15421 4.75974 3.7874
lfemur -0.667602 2.58324 -29.086
ltibia 17.8492 0 0
lfoot -18.8987 2.9445 0
ltoes 0.56822 0 0
rfemur -38.648 2.93613 14.0995
rtibia 47.6359 0 0
rfoot -25.3407 -11.5493 0
rtoes -17.39 0 0
lowerback -5.60109 -4.92239 -4.47211
upperback 0.456477 -6.30372 1.70287
thorax 4.22163 -3.2465 3.70174
lowerneck -23.4157 -2.30638 -8.83294
upperneck 25.1201 -2.71976 9.28656
head 12.4377 -0.807594 4.5852
lclavicle 1.5308e-14 1.34724e-14 0
lhumerus -10.2805 -22.3017 85.4968
lradius 29.4747 0 0
lwrist 4.9366 0 0
lhand -14.6328 -24.9895 0
lfingers 7.12502 0 0
lthumb 11.5192 4.67908 0
rclavicle 1.5308e-14 1.34724e-14 0
rhumerus -46.7636 9.74082 -86.0415
rradius 38.5939 0 0
rwrist -19.2299 0 0
rhand -37.8459 -15.2213 0
rfingers 7.12502 0 0
rthumb -10.8905 -44.9204 0
477
root 10.8834 17.3186 30.9335 4.14263 4.85754 3.91231
lfemur 0.514405 2.52306 -29.1389
ltibia 16.9617 0 0
lfoot -18.9906 2.91388 0
ltoes 0.403957 0 0
rfemur -39.32 3.30956 13.7956
rtibia 46.7822 0 0
rfoot -25.9237 -11.7616 0
rtoes -17.7418 0 0
lowerback -5.69082 -5.0378 -4.57608
upperback 0.55033 -6.44407 1.6872
thorax 4.3874 -3.32242 3.72138
lowerneck -23.5145 -2.27268 -8.77124
upperneck 25.1089 -2.68364 9.29292
head 12.4452 -0.78181 4.58311
lclavicle 1.59093e-14 1.30681e-14 0
lhumerus -9.90512 -22.7285 85.4748
lradius 29.8497 0 0
lwrist 5.18294 0 0
lhand -14.6602 -25.0501 0
lfingers 7.12502 0 0
lthumb 11.4928 4.62032 0
rclavicle 1.59093e-14 1.30681e-14 0
rhumerus -46.851 9.59476 -85.9276
rradius 38.5415 0 0
rwrist -19.2511 0 0
rhand -37.6886 -15.2682 0
rfingers 7.12502 0 0
rthumb -10.7388 -44.9733 0
478
root 10.8815 17.3097 31.113 4.13579 4.94976 4.03666
lfemur 1.69846 2.46221 -29.188
ltibia 16.0576 0 0
lfoot -19.0682 2.88771 0
ltoes 0.238805 0 0
rfemur -39.9697 3.69403 13.4873
rtibia 45.8985 0 0
rfoot -26.472 -11.9686 0
rtoes -18.1069 0 0
lowerback -5.78398 -5.14787 -4.68035
upperback 0.642042 -6.577 1.6699
thorax 4.55262 -3.39466 3.73953
lowerneck -23.6088 -2.24193 -8.71498
upperneck 25.0939 -2.65192 9.3051
head 12.4513 -0.757894 4.58336
lclavicle 1.65394e-14 1.26367e-14 0
lhumerus -9.55874 -23.1466 85.4559
lradius 30.2261 0 0
lwrist 5.4251 0 0
lhand -14.6832 -25.1109 0
lfingers 7.12502 0 0
lthumb 11.4707 4.56115 0
rclavicle 1.65394e-14 1.26367e-14 0
rhumerus -46.9388 9.44225 -85.8148
rradius 38.4743 0 0
rwrist -19.2648 0 0
rhand -37.5104 -15.3327 0
rfingers 7.12502 0 0
rthumb -10.5668 -45.0444 0
479
root 10.879 17.3002 31.2917 4.13399 5.0357 4.15985
lfemur 2.8793 2.40094 -29.2327
ltibia 15.1399 0 0
lfoot -19.1303 2.86634 0
ltoes 0.0734657 0 0
rfemur -40.5929 4.08839 13.1756
rtibia 44.9872 0 0
rfoot -26.9812 -12.1691 0
rtoes -18.4843 0 0
lowerback -5.88035 -5.25181 -4.78446
upperback 0.731083 -6.70153 1.65096
thorax 4.71652 -3.46271 3.75604
lowerneck -23.6981 -2.21444 -8.66472
upperneck 25.0748 -2.62497 9.32337
head 12.4559 -0.736052 4.58608
lclavicle 1.71971e-14 1.21787e-14 0
lhumerus -9.24441 -23.5535 85.4404
lradius 30.6022 0 0
lwrist 5.66178 0 0
lhand -14.7015 -25.1715 0
lfingers 7.12502 0 0
lthumb 11.4531 4.50181 0
rclavicle 1.71971e-14 1.21787e-14 0
rhumerus -47.027 9.28367 -85.7035
rradius 38.3918 0 0
rwrist -19.2705 0 0
rhand -37.3109 -15.4154 0
rfingers 7.12502 0 0
rthumb -10.3742 -45.1343 0
480
root 10.8757 17.2902 31.4687 4.1375 5.11465 4.28128
lfemur 4.05165 2.33948 -29.2728
ltibia 14.2121 0 0
lfoot -19.1759 2.85013 0
ltoes -0.0913578 0 0
rfemur -41.1857 4.49147 12.8618
rtibia 44.0509 0 0
rfoot -27.447 -12.3619 0
rtoes -18.8732 0 0
lowerback -5.97967 -5.34885 -4.88797
upperback 0.816927 -6.81666 1.63036
thorax 4.87833 -3.52606 3.77074
lowerneck -23.7816 -2.19049 -8.62097
upperneck 25.0515 -2.60316 9.34797
head 12.4589 -0.71649 4.59138
lclavicle 1.78809e-14 1.16946e-14 0
lhumerus -8.96521 -23.9469 85.4285
lradius 30.9766 0 0
lwrist 5.89164 0 0
lhand -14.7147 -25.2317 0
lfingers 7.12502 0 0
lthumb 11.4403 4.44256 0
rclavicle 1.78809e-14 1.16946e-14 0
rhumerus -47.1149 9.11936 -85.5944
rradius 38.2935 0 0
rwrist -19.2679 0 0
rhand -37.0899 -15.5168 0
rfingers 7.12502 0 0
rthumb -10.1609 -45.2436 0
481
root 10.8718 17.2796 31.6433 4.1466 5.18591 4.40037
lfemur 5.21027 2.27807 -29.3076
ltibia 13.2772 0 0
lfoot -19.2039 2.83942 0
ltoes -0.254963 0 0
rfemur -41.7438 4.90209 12.5471
rtibia 43.092 0 0
rfoot -27.8651 -12.5457 0
rtoes -19.2724 0 0
lowerback -6.08171 -5.4382 -4.99041
upperback 0.899046 -6.92141 1.6081
thorax 5.03726 -3.58419 3.78348
lowerneck -23.8586 -2.17038 -8.5843
upperneck 25.0239 -2.58688 9.37915
head 12.4601 -0.699413 4.5994
lclavicle 1.85896e-14 1.1185e-14 0
lhumerus -8.72423 -24.3245 85.4204
lradius 31.3474 0 0
lwrist 6.11339 0 0
lhand -14.7227 -25.2913 0
lfingers 7.12502 0 0
lthumb 11.4326 4.38363 0
rclavicle 1.85896e-14 1.1185e-14 0
rhumerus -47.2023 8.94967 -85.4881
rradius 38.179 0 0
rwrist -19.2564 0 0
rhand -36.847 -15.6378 0
rfingers 7.12502 0 0
rthumb -9.92645 -45.373 0
